<svg id="visual" viewBox="0 0 900 600" width="900" height="600" xmlns="http://www.w3.org/2000/svg" xmlns:xlink="http://www.w3.org/1999/xlink" version="1.1"><rect x="0" y="0" width="900" height="600" fill="#001220"></rect><defs><linearGradient id="grad1_0" x1="33.3%" y1="0%" x2="100%" y2="100%"><stop offset="20%" stop-color="#001220" stop-opacity="1"></stop><stop offset="80%" stop-color="#001220" stop-opacity="1"></stop></linearGradient></defs><defs><linearGradient id="grad2_0" x1="0%" y1="0%" x2="66.7%" y2="100%"><stop offset="20%" stop-color="#001220" stop-opacity="1"></stop><stop offset="80%" stop-color="#001220" stop-opacity="1"></stop></linearGradient></defs><g transform="translate(900, 0)"><path d="M0 297.5C-25.1 275.9 -50.1 254.4 -80.7 248.2C-111.2 242.1 -147.2 251.4 -174.8 240.6C-202.5 229.9 -221.9 199.2 -233.8 169.9C-245.7 140.5 -250.3 112.5 -259.6 84.4C-269 56.3 -283.2 28.1 -297.5 0L0 0Z" fill="#FBAE3C"></path></g><g transform="translate(0, 600)"><path d="M0 -297.5C32.6 -294.3 65.2 -291.1 89.6 -275.8C114 -260.5 130.2 -233 157.5 -216.8C184.8 -200.7 223.2 -195.9 240.6 -174.8C258.1 -153.8 254.6 -116.5 260.6 -84.7C266.6 -52.8 282 -26.4 297.5 0L0 0Z" fill="#FBAE3C"></path></g></svg>