<svg id="visual" viewBox="0 0 900 600" width="900" height="600" xmlns="http://www.w3.org/2000/svg" xmlns:xlink="http://www.w3.org/1999/xlink" version="1.1"><rect x="0" y="0" width="900" height="600" fill="#00111f"></rect><defs><linearGradient id="grad1_0" x1="33.3%" y1="0%" x2="100%" y2="100%"><stop offset="20%" stop-color="#00111f" stop-opacity="1"></stop><stop offset="80%" stop-color="#00111f" stop-opacity="1"></stop></linearGradient></defs><defs><linearGradient id="grad2_0" x1="0%" y1="0%" x2="66.7%" y2="100%"><stop offset="20%" stop-color="#00111f" stop-opacity="1"></stop><stop offset="80%" stop-color="#00111f" stop-opacity="1"></stop></linearGradient></defs><g transform="translate(900, 0)"><path d="M0 378.6C-48.6 373.2 -97.3 367.9 -144.9 349.8C-192.5 331.6 -239 300.7 -258.8 258.8C-278.6 216.9 -271.8 164 -287.3 119C-302.8 74 -340.7 37 -378.6 0L0 0Z" fill="#ffde38"></path></g><g transform="translate(0, 600)"><path d="M0 -378.6C40.1 -343.5 80.1 -308.3 118.6 -286.4C157.2 -264.5 194.2 -255.8 236.2 -236.2C278.2 -216.6 325.2 -186.1 349.8 -144.9C374.3 -103.7 376.5 -51.8 378.6 0L0 0Z" fill="#ffde38"></path></g></svg>