<svg id="visual" viewBox="0 0 900 600" width="900" height="600" xmlns="http://www.w3.org/2000/svg" xmlns:xlink="http://www.w3.org/1999/xlink" version="1.1"><rect x="0" y="0" width="900" height="600" fill="#001220"></rect><path d="M371 0L347.7 14.3C324.3 28.7 277.7 57.3 258.3 85.8C239 114.3 247 142.7 258.3 171.2C269.7 199.7 284.3 228.3 286.8 257C289.3 285.7 279.7 314.3 273.3 343C267 371.7 264 400.3 268.7 428.8C273.3 457.3 285.7 485.7 292.8 514.2C300 542.7 302 571.3 303 585.7L304 600L0 600L0 585.7C0 571.3 0 542.7 0 514.2C0 485.7 0 457.3 0 428.8C0 400.3 0 371.7 0 343C0 314.3 0 285.7 0 257C0 228.3 0 199.7 0 171.2C0 142.7 0 114.3 0 85.8C0 57.3 0 28.7 0 14.3L0 0Z" fill="#ffff66"></path><path d="M267 0L269 14.3C271 28.7 275 57.3 263.7 85.8C252.3 114.3 225.7 142.7 219 171.2C212.3 199.7 225.7 228.3 224.8 257C224 285.7 209 314.3 201.3 343C193.7 371.7 193.3 400.3 208.2 428.8C223 457.3 253 485.7 265 514.2C277 542.7 271 571.3 268 585.7L265 600L0 600L0 585.7C0 571.3 0 542.7 0 514.2C0 485.7 0 457.3 0 428.8C0 400.3 0 371.7 0 343C0 314.3 0 285.7 0 257C0 228.3 0 199.7 0 171.2C0 142.7 0 114.3 0 85.8C0 57.3 0 28.7 0 14.3L0 0Z" fill="#fff75b"></path><path d="M243 0L238.7 14.3C234.3 28.7 225.7 57.3 225.3 85.8C225 114.3 233 142.7 229.5 171.2C226 199.7 211 228.3 206 257C201 285.7 206 314.3 210.8 343C215.7 371.7 220.3 400.3 224.7 428.8C229 457.3 233 485.7 221.3 514.2C209.7 542.7 182.3 571.3 168.7 585.7L155 600L0 600L0 585.7C0 571.3 0 542.7 0 514.2C0 485.7 0 457.3 0 428.8C0 400.3 0 371.7 0 343C0 314.3 0 285.7 0 257C0 228.3 0 199.7 0 171.2C0 142.7 0 114.3 0 85.8C0 57.3 0 28.7 0 14.3L0 0Z" fill="#ffef4f"></path><path d="M131 0L130.3 14.3C129.7 28.7 128.3 57.3 135.7 85.8C143 114.3 159 142.7 159.3 171.2C159.7 199.7 144.3 228.3 141.2 257C138 285.7 147 314.3 149 343C151 371.7 146 400.3 143.3 428.8C140.7 457.3 140.3 485.7 138.8 514.2C137.3 542.7 134.7 571.3 133.3 585.7L132 600L0 600L0 585.7C0 571.3 0 542.7 0 514.2C0 485.7 0 457.3 0 428.8C0 400.3 0 371.7 0 343C0 314.3 0 285.7 0 257C0 228.3 0 199.7 0 171.2C0 142.7 0 114.3 0 85.8C0 57.3 0 28.7 0 14.3L0 0Z" fill="#ffe744"></path><path d="M112 0L110 14.3C108 28.7 104 57.3 92.3 85.8C80.7 114.3 61.3 142.7 58.5 171.2C55.7 199.7 69.3 228.3 72 257C74.7 285.7 66.3 314.3 69.3 343C72.3 371.7 86.7 400.3 83.7 428.8C80.7 457.3 60.3 485.7 52.2 514.2C44 542.7 48 571.3 50 585.7L52 600L0 600L0 585.7C0 571.3 0 542.7 0 514.2C0 485.7 0 457.3 0 428.8C0 400.3 0 371.7 0 343C0 314.3 0 285.7 0 257C0 228.3 0 199.7 0 171.2C0 142.7 0 114.3 0 85.8C0 57.3 0 28.7 0 14.3L0 0Z" fill="#ffde38"></path></svg>