<svg id="visual" viewBox="0 0 900 600" width="900" height="600" xmlns="http://www.w3.org/2000/svg" xmlns:xlink="http://www.w3.org/1999/xlink" version="1.1"><rect x="0" y="0" width="900" height="600" fill="#001220"></rect><path d="M530 600L532.3 585.7C534.7 571.3 539.3 542.7 549.8 514.2C560.3 485.7 576.7 457.3 575.5 428.8C574.3 400.3 555.7 371.7 558.2 343C560.7 314.3 584.3 285.7 588.5 257C592.7 228.3 577.3 199.7 583.2 171.2C589 142.7 616 114.3 616.2 85.8C616.3 57.3 589.7 28.7 576.3 14.3L563 0L900 0L900 14.3C900 28.7 900 57.3 900 85.8C900 114.3 900 142.7 900 171.2C900 199.7 900 228.3 900 257C900 285.7 900 314.3 900 343C900 371.7 900 400.3 900 428.8C900 457.3 900 485.7 900 514.2C900 542.7 900 571.3 900 585.7L900 600Z" fill="#ffff66"></path><path d="M718 600L701 585.7C684 571.3 650 542.7 633.7 514.2C617.3 485.7 618.7 457.3 624.3 428.8C630 400.3 640 371.7 639.2 343C638.3 314.3 626.7 285.7 634 257C641.3 228.3 667.7 199.7 682.8 171.2C698 142.7 702 114.3 693 85.8C684 57.3 662 28.7 651 14.3L640 0L900 0L900 14.3C900 28.7 900 57.3 900 85.8C900 114.3 900 142.7 900 171.2C900 199.7 900 228.3 900 257C900 285.7 900 314.3 900 343C900 371.7 900 400.3 900 428.8C900 457.3 900 485.7 900 514.2C900 542.7 900 571.3 900 585.7L900 600Z" fill="#fff75b"></path><path d="M685 600L698.2 585.7C711.3 571.3 737.7 542.7 741.2 514.2C744.7 485.7 725.3 457.3 711.2 428.8C697 400.3 688 371.7 684 343C680 314.3 681 285.7 693.8 257C706.7 228.3 731.3 199.7 737 171.2C742.7 142.7 729.3 114.3 722.7 85.8C716 57.3 716 28.7 716 14.3L716 0L900 0L900 14.3C900 28.7 900 57.3 900 85.8C900 114.3 900 142.7 900 171.2C900 199.7 900 228.3 900 257C900 285.7 900 314.3 900 343C900 371.7 900 400.3 900 428.8C900 457.3 900 485.7 900 514.2C900 542.7 900 571.3 900 585.7L900 600Z" fill="#ffef4f"></path><path d="M764 600L761.7 585.7C759.3 571.3 754.7 542.7 762.2 514.2C769.7 485.7 789.3 457.3 800.3 428.8C811.3 400.3 813.7 371.7 814 343C814.3 314.3 812.7 285.7 812.5 257C812.3 228.3 813.7 199.7 805 171.2C796.3 142.7 777.7 114.3 770.7 85.8C763.7 57.3 768.3 28.7 770.7 14.3L773 0L900 0L900 14.3C900 28.7 900 57.3 900 85.8C900 114.3 900 142.7 900 171.2C900 199.7 900 228.3 900 257C900 285.7 900 314.3 900 343C900 371.7 900 400.3 900 428.8C900 457.3 900 485.7 900 514.2C900 542.7 900 571.3 900 585.7L900 600Z" fill="#ffe744"></path><path d="M863 600L855.3 585.7C847.7 571.3 832.3 542.7 825.3 514.2C818.3 485.7 819.7 457.3 823.8 428.8C828 400.3 835 371.7 833.8 343C832.7 314.3 823.3 285.7 816.8 257C810.3 228.3 806.7 199.7 807.3 171.2C808 142.7 813 114.3 822.8 85.8C832.7 57.3 847.3 28.7 854.7 14.3L862 0L900 0L900 14.3C900 28.7 900 57.3 900 85.8C900 114.3 900 142.7 900 171.2C900 199.7 900 228.3 900 257C900 285.7 900 314.3 900 343C900 371.7 900 400.3 900 428.8C900 457.3 900 485.7 900 514.2C900 542.7 900 571.3 900 585.7L900 600Z" fill="#ffde38"></path></svg>