<svg id="visual" viewBox="0 0 900 600" width="900" height="600" xmlns="http://www.w3.org/2000/svg" xmlns:xlink="http://www.w3.org/1999/xlink" version="1.1"><rect x="0" y="0" width="900" height="600" fill="#001220"></rect><path d="M0 177L16.7 174.7C33.3 172.3 66.7 167.7 100 168.2C133.3 168.7 166.7 174.3 200 173.2C233.3 172 266.7 164 300 161.7C333.3 159.3 366.7 162.7 400 164.7C433.3 166.7 466.7 167.3 500 166.3C533.3 165.3 566.7 162.7 600 164.2C633.3 165.7 666.7 171.3 700 176C733.3 180.7 766.7 184.3 800 185.3C833.3 186.3 866.7 184.7 883.3 183.8L900 183L900 0L883.3 0C866.7 0 833.3 0 800 0C766.7 0 733.3 0 700 0C666.7 0 633.3 0 600 0C566.7 0 533.3 0 500 0C466.7 0 433.3 0 400 0C366.7 0 333.3 0 300 0C266.7 0 233.3 0 200 0C166.7 0 133.3 0 100 0C66.7 0 33.3 0 16.7 0L0 0Z" fill="#ffde38"></path><path d="M0 132L16.7 137.2C33.3 142.3 66.7 152.7 100 154C133.3 155.3 166.7 147.7 200 145.2C233.3 142.7 266.7 145.3 300 144.2C333.3 143 366.7 138 400 141C433.3 144 466.7 155 500 156.3C533.3 157.7 566.7 149.3 600 144.3C633.3 139.3 666.7 137.7 700 140.5C733.3 143.3 766.7 150.7 800 150.7C833.3 150.7 866.7 143.3 883.3 139.7L900 136L900 0L883.3 0C866.7 0 833.3 0 800 0C766.7 0 733.3 0 700 0C666.7 0 633.3 0 600 0C566.7 0 533.3 0 500 0C466.7 0 433.3 0 400 0C366.7 0 333.3 0 300 0C266.7 0 233.3 0 200 0C166.7 0 133.3 0 100 0C66.7 0 33.3 0 16.7 0L0 0Z" fill="#ffe440"></path><path d="M0 114L16.7 115.8C33.3 117.7 66.7 121.3 100 122C133.3 122.7 166.7 120.3 200 120.7C233.3 121 266.7 124 300 123C333.3 122 366.7 117 400 114.8C433.3 112.7 466.7 113.3 500 115.5C533.3 117.7 566.7 121.3 600 122.7C633.3 124 666.7 123 700 125.5C733.3 128 766.7 134 800 135.2C833.3 136.3 866.7 132.7 883.3 130.8L900 129L900 0L883.3 0C866.7 0 833.3 0 800 0C766.7 0 733.3 0 700 0C666.7 0 633.3 0 600 0C566.7 0 533.3 0 500 0C466.7 0 433.3 0 400 0C366.7 0 333.3 0 300 0C266.7 0 233.3 0 200 0C166.7 0 133.3 0 100 0C66.7 0 33.3 0 16.7 0L0 0Z" fill="#ffe947"></path><path d="M0 87L16.7 91.2C33.3 95.3 66.7 103.7 100 104.7C133.3 105.7 166.7 99.3 200 96.7C233.3 94 266.7 95 300 96.3C333.3 97.7 366.7 99.3 400 101.8C433.3 104.3 466.7 107.7 500 108.3C533.3 109 566.7 107 600 105C633.3 103 666.7 101 700 100.8C733.3 100.7 766.7 102.3 800 100.8C833.3 99.3 866.7 94.7 883.3 92.3L900 90L900 0L883.3 0C866.7 0 833.3 0 800 0C766.7 0 733.3 0 700 0C666.7 0 633.3 0 600 0C566.7 0 533.3 0 500 0C466.7 0 433.3 0 400 0C366.7 0 333.3 0 300 0C266.7 0 233.3 0 200 0C166.7 0 133.3 0 100 0C66.7 0 33.3 0 16.7 0L0 0Z" fill="#ffef4f"></path><path d="M0 67L16.7 70.2C33.3 73.3 66.7 79.7 100 82C133.3 84.3 166.7 82.7 200 80C233.3 77.3 266.7 73.7 300 72.2C333.3 70.7 366.7 71.3 400 72C433.3 72.7 466.7 73.3 500 75.3C533.3 77.3 566.7 80.7 600 80.3C633.3 80 666.7 76 700 75.8C733.3 75.7 766.7 79.3 800 81.5C833.3 83.7 866.7 84.3 883.3 84.7L900 85L900 0L883.3 0C866.7 0 833.3 0 800 0C766.7 0 733.3 0 700 0C666.7 0 633.3 0 600 0C566.7 0 533.3 0 500 0C466.7 0 433.3 0 400 0C366.7 0 333.3 0 300 0C266.7 0 233.3 0 200 0C166.7 0 133.3 0 100 0C66.7 0 33.3 0 16.7 0L0 0Z" fill="#fff457"></path><path d="M0 57L16.7 56.5C33.3 56 66.7 55 100 54.2C133.3 53.3 166.7 52.7 200 53C233.3 53.3 266.7 54.7 300 54.5C333.3 54.3 366.7 52.7 400 53.8C433.3 55 466.7 59 500 60C533.3 61 566.7 59 600 57.5C633.3 56 666.7 55 700 53.3C733.3 51.7 766.7 49.3 800 49.2C833.3 49 866.7 51 883.3 52L900 53L900 0L883.3 0C866.7 0 833.3 0 800 0C766.7 0 733.3 0 700 0C666.7 0 633.3 0 600 0C566.7 0 533.3 0 500 0C466.7 0 433.3 0 400 0C366.7 0 333.3 0 300 0C266.7 0 233.3 0 200 0C166.7 0 133.3 0 100 0C66.7 0 33.3 0 16.7 0L0 0Z" fill="#fffa5e"></path><path d="M0 22L16.7 24C33.3 26 66.7 30 100 30.8C133.3 31.7 166.7 29.3 200 28.7C233.3 28 266.7 29 300 29.7C333.3 30.3 366.7 30.7 400 32C433.3 33.3 466.7 35.7 500 34.2C533.3 32.7 566.7 27.3 600 26.3C633.3 25.3 666.7 28.7 700 30.8C733.3 33 766.7 34 800 34.7C833.3 35.3 866.7 35.7 883.3 35.8L900 36L900 0L883.3 0C866.7 0 833.3 0 800 0C766.7 0 733.3 0 700 0C666.7 0 633.3 0 600 0C566.7 0 533.3 0 500 0C466.7 0 433.3 0 400 0C366.7 0 333.3 0 300 0C266.7 0 233.3 0 200 0C166.7 0 133.3 0 100 0C66.7 0 33.3 0 16.7 0L0 0Z" fill="#ffff66"></path></svg>