<svg id="visual" viewBox="0 0 900 600" width="900" height="600" xmlns="http://www.w3.org/2000/svg" xmlns:xlink="http://www.w3.org/1999/xlink" version="1.1"><rect x="0" y="0" width="900" height="600" fill="#001220"></rect><path d="M580 600L588.7 585.7C597.3 571.3 614.7 542.7 628.5 514.2C642.3 485.7 652.7 457.3 635.2 428.8C617.7 400.3 572.3 371.7 570 343C567.7 314.3 608.3 285.7 629.5 257C650.7 228.3 652.3 199.7 634 171.2C615.7 142.7 577.3 114.3 572.7 85.8C568 57.3 597 28.7 611.5 14.3L626 0L900 0L900 14.3C900 28.7 900 57.3 900 85.8C900 114.3 900 142.7 900 171.2C900 199.7 900 228.3 900 257C900 285.7 900 314.3 900 343C900 371.7 900 400.3 900 428.8C900 457.3 900 485.7 900 514.2C900 542.7 900 571.3 900 585.7L900 600Z" fill="#ffd699"></path><path d="M661 600L666.5 585.7C672 571.3 683 542.7 678.3 514.2C673.7 485.7 653.3 457.3 653.3 428.8C653.3 400.3 673.7 371.7 686.7 343C699.7 314.3 705.3 285.7 692.2 257C679 228.3 647 199.7 643.7 171.2C640.3 142.7 665.7 114.3 668 85.8C670.3 57.3 649.7 28.7 639.3 14.3L629 0L900 0L900 14.3C900 28.7 900 57.3 900 85.8C900 114.3 900 142.7 900 171.2C900 199.7 900 228.3 900 257C900 285.7 900 314.3 900 343C900 371.7 900 400.3 900 428.8C900 457.3 900 485.7 900 514.2C900 542.7 900 571.3 900 585.7L900 600Z" fill="#ffdd8c"></path><path d="M731 600L729.8 585.7C728.7 571.3 726.3 542.7 721 514.2C715.7 485.7 707.3 457.3 702.2 428.8C697 400.3 695 371.7 691.7 343C688.3 314.3 683.7 285.7 694.8 257C706 228.3 733 199.7 730.3 171.2C727.7 142.7 695.3 114.3 680.8 85.8C666.3 57.3 669.7 28.7 671.3 14.3L673 0L900 0L900 14.3C900 28.7 900 57.3 900 85.8C900 114.3 900 142.7 900 171.2C900 199.7 900 228.3 900 257C900 285.7 900 314.3 900 343C900 371.7 900 400.3 900 428.8C900 457.3 900 485.7 900 514.2C900 542.7 900 571.3 900 585.7L900 600Z" fill="#ffe67f"></path><path d="M759 600L753.8 585.7C748.7 571.3 738.3 542.7 743.7 514.2C749 485.7 770 457.3 769.3 428.8C768.7 400.3 746.3 371.7 739.2 343C732 314.3 740 285.7 752.7 257C765.3 228.3 782.7 199.7 783.2 171.2C783.7 142.7 767.3 114.3 768.2 85.8C769 57.3 787 28.7 796 14.3L805 0L900 0L900 14.3C900 28.7 900 57.3 900 85.8C900 114.3 900 142.7 900 171.2C900 199.7 900 228.3 900 257C900 285.7 900 314.3 900 343C900 371.7 900 400.3 900 428.8C900 457.3 900 485.7 900 514.2C900 542.7 900 571.3 900 585.7L900 600Z" fill="#fef072"></path><path d="M821 600L820.7 585.7C820.3 571.3 819.7 542.7 814.5 514.2C809.3 485.7 799.7 457.3 801.7 428.8C803.7 400.3 817.3 371.7 829.2 343C841 314.3 851 285.7 853.3 257C855.7 228.3 850.3 199.7 839 171.2C827.7 142.7 810.3 114.3 811.5 85.8C812.7 57.3 832.3 28.7 842.2 14.3L852 0L900 0L900 14.3C900 28.7 900 57.3 900 85.8C900 114.3 900 142.7 900 171.2C900 199.7 900 228.3 900 257C900 285.7 900 314.3 900 343C900 371.7 900 400.3 900 428.8C900 457.3 900 485.7 900 514.2C900 542.7 900 571.3 900 585.7L900 600Z" fill="#f9fa66"></path></svg>